<svg id="Layer_2" data-name="Layer 2" xmlns="http://www.w3.org/2000/svg" viewBox="0 0 512 512"><defs><style>.cls-1,.cls-3,.cls-4{fill:none;}.cls-2{fill:#172026;}.cls-2,.cls-4{stroke:#fff;stroke-width:5.85px;}.cls-2,.cls-3,.cls-4{stroke-miterlimit:10;}.cls-3{stroke:#172026;stroke-width:11.7px;}.cls-4{stroke-linecap:round;}</style></defs><polygon class="cls-1" points="346.14 308.66 254.92 361.33 163.71 308.66 163.71 203.34 254.92 150.67 346.14 203.34 346.14 308.66"/><polygon class="cls-2" points="433.36 153.6 433.36 358.4 256 460.8 78.64 358.4 78.64 153.6 256 51.2 433.36 153.6"/><path class="cls-3" d="M349.56,205.31a26.33,26.33,0,0,0-9.64-36h0L313.7,154.2"/><path class="cls-4" d="M349.56,205.31a26.33,26.33,0,0,0-9.64-36h0L313.7,154.2"/><path class="cls-3" d="M313.7,154.2l-26.23-15.14a26.34,26.34,0,0,0-36,9.64"/><path class="cls-4" d="M313.7,154.2l-26.23-15.14a26.34,26.34,0,0,0-36,9.64"/><path class="cls-3" d="M222.48,199.81l26.22-15.14h0a26.33,26.33,0,0,0,9.63-36"/><path class="cls-4" d="M222.48,199.81l26.22-15.14h0a26.33,26.33,0,0,0,9.63-36"/><path class="cls-3" d="M251.5,148.7a26.34,26.34,0,0,0,9.64,36l26.23,15.14"/><path class="cls-4" d="M251.5,148.7a26.34,26.34,0,0,0,9.64,36l26.23,15.14"/><path class="cls-3" d="M258.34,148.7a26.34,26.34,0,0,0-36-9.64h0L196.15,154.2"/><path class="cls-4" d="M258.34,148.7a26.34,26.34,0,0,0-36-9.64h0L196.15,154.2"/><path class="cls-3" d="M196.15,154.2l-26.22,15.14a26.33,26.33,0,0,0-9.64,36"/><path class="cls-4" d="M196.15,154.2l-26.22,15.14a26.33,26.33,0,0,0-9.64,36"/><path class="cls-3" d="M190,256V225.72h0a26.33,26.33,0,0,0-26.33-26.33"/><path class="cls-4" d="M190,256V225.72h0a26.33,26.33,0,0,0-26.33-26.33"/><path class="cls-3" d="M160.29,205.31a26.33,26.33,0,0,0,36,9.64l26.22-15.14"/><path class="cls-4" d="M160.29,205.31a26.33,26.33,0,0,0,36,9.64l26.22-15.14"/><path class="cls-3" d="M163.71,199.39a26.33,26.33,0,0,0-26.33,26.33h0V256"/><path class="cls-4" d="M163.71,199.39a26.33,26.33,0,0,0-26.33,26.33h0V256"/><path class="cls-3" d="M137.38,256v30.28a26.33,26.33,0,0,0,26.33,26.33"/><path class="cls-4" d="M137.38,256v30.28a26.33,26.33,0,0,0,26.33,26.33"/><path class="cls-3" d="M222.48,312.19l-26.22-15.14h0a26.33,26.33,0,0,0-36,9.64"/><path class="cls-4" d="M222.48,312.19l-26.22-15.14h0a26.33,26.33,0,0,0-36,9.64"/><path class="cls-3" d="M163.71,312.61A26.33,26.33,0,0,0,190,286.28V256"/><path class="cls-4" d="M163.71,312.61A26.33,26.33,0,0,0,190,286.28V256"/><path class="cls-3" d="M160.29,306.69a26.33,26.33,0,0,0,9.64,36h0l26.22,15.14"/><path class="cls-4" d="M160.29,306.69a26.33,26.33,0,0,0,9.64,36h0l26.22,15.14"/><path class="cls-3" d="M196.15,357.8l26.22,15.14a26.34,26.34,0,0,0,36-9.64"/><path class="cls-4" d="M196.15,357.8l26.22,15.14a26.34,26.34,0,0,0,36-9.64"/><path class="cls-3" d="M287.36,312.19l-26.22,15.14h0a26.34,26.34,0,0,0-9.64,36"/><path class="cls-4" d="M287.36,312.19l-26.22,15.14h0a26.34,26.34,0,0,0-9.64,36"/><path class="cls-3" d="M258.34,363.3a26.33,26.33,0,0,0-9.63-36l-26.23-15.14"/><path class="cls-4" d="M258.34,363.3a26.33,26.33,0,0,0-9.63-36l-26.23-15.14"/><path class="cls-3" d="M251.5,363.3a26.34,26.34,0,0,0,36,9.64h0L313.7,357.8"/><path class="cls-4" d="M251.5,363.3a26.34,26.34,0,0,0,36,9.64h0L313.7,357.8"/><path class="cls-3" d="M313.7,357.8l26.22-15.14a26.34,26.34,0,0,0,9.64-36"/><path class="cls-4" d="M313.7,357.8l26.22-15.14a26.34,26.34,0,0,0,9.64-36"/><path class="cls-3" d="M287.37,199.81,313.59,215h0a26.33,26.33,0,0,0,36-9.64"/><path class="cls-4" d="M287.37,199.81,313.59,215h0a26.33,26.33,0,0,0,36-9.64"/><path class="cls-3" d="M349.56,306.69a26.33,26.33,0,0,0-36-9.64l-26.23,15.14"/><path class="cls-4" d="M349.56,306.69a26.33,26.33,0,0,0-36-9.64l-26.23,15.14"/></svg>